<svg xmlns="http://www.w3.org/2000/svg"
     aria-hidden="true"
     focusable="false"
     style="position:absolute;width:0;height:0;overflow:hidden">

  <!-- GRID -->
  <symbol id="icon-grid" viewBox="0 0 24 24">
    <rect x="3" y="3" width="7" height="7" rx="1"/>
    <rect x="14" y="3" width="7" height="7" rx="1"/>
    <rect x="14" y="14" width="7" height="7" rx="1"/>
    <rect x="3" y="14" width="7" height="7" rx="1"/>
  </symbol>

  <!-- LIST -->
  <symbol id="icon-list" viewBox="0 0 24 24">
    <line x1="8" x2="21" y1="6" y2="6"/>
    <line x1="8" x2="21" y1="12" y2="12"/>
    <line x1="8" x2="21" y1="18" y2="18"/>
    <line x1="3" x2="3.01" y1="6" y2="6"/>
    <line x1="3" x2="3.01" y1="12" y2="12"/>
    <line x1="3" x2="3.01" y1="18" y2="18"/>
  </symbol>

  <!-- TREE -->
  <symbol id="icon-tree" viewBox="0 0 24 24">
    <path d="M20 10a1 1 0 0 0 1-1V6a1 1 0 0 0-1-1h-2.5a1 1 0 0 1-.8-.4l-.9-1.2A1 1 0 0 0 15 3h-2a1 1 0 0 0-1 1v5a1 1 0 0 0 1 1Z"/>
    <path d="M20 21a1 1 0 0 0 1-1v-3a1 1 0 0 0-1-1h-2.9a1 1 0 0 1-.88-.55l-.42-.85a1 1 0 0 0-.92-.6H13a1 1 0 0 0-1 1v5a1 1 0 0 0 1 1Z"/>
    <path d="M3 5a2 2 0 0 0 2 2h3"/>
    <path d="M3 3v13a2 2 0 0 0 2 2h3"/>
  </symbol>

  <!-- FOLDER -->
  <symbol id="icon-folder" viewBox="0 0 24 24">
    <path d="M20 20a2 2 0 0 0 2-2V8a2 2 0 0 0-2-2h-7.9a2 2 0 0 1-1.69-.9L9.6 3.9A2 2 0 0 0 7.93 3H4a2 2 0 0 0-2 2v13a2 2 0 0 0 2 2Z"/>
  </symbol>

  <!-- FOLDER UP -->
  <symbol id="icon-folderUp" viewBox="0 0 24 24">
    <path d="M20 20a2 2 0 0 0 2-2V8a2 2 0 0 0-2-2h-7.9a2 2 0 0 1-1.69-.9L9.6 3.9A2 2 0 0 0 7.93 3H4a2 2 0 0 0-2 2v13a2 2 0 0 0 2 2Z"/>
    <path d="M12 10v6"/>
    <path d="m9 13 3-3 3 3"/>
  </symbol>

  <!-- FOLDER OPENED -->
  <symbol id="icon-folderOpened" viewBox="0 0 24 24">
  <path d="m6 14 1.5-2.9A2 2 0 0 1 9.24 10H20a2 2 0 0 1 1.94 2.5l-1.54 6a2 2 0 0 1-1.95 1.5H4a2 2 0 0 1-2-2V5a2 2 0 0 1 2-2h3.9a2 2 0 0 1 1.69.9l.81 1.2a2 2 0 0 0 1.67.9H18a2 2 0 0 1 2 2v2"/>
  </symbol>

  <!-- REFRESH -->
  <symbol id="icon-refresh" viewBox="0 0 24 24">
  <path d="M21 12a9 9 0 1 1-9-9c2.52 0 4.93 1 6.74 2.74L21 8"/>
  <path d="M21 3v5h-5"/>
  </symbol>

  <!-- FOLDER EXPAND -->
  <symbol id="icon-folderExpand" viewBox="0 0 24 24">
    <path d="M12 10v6"/><path d="M9 13h6"/>
    <path d="M20 20a2 2 0 0 0 2-2V8a2 2 0 0 0-2-2h-7.9a2 2 0 0 1-1.69-.9L9.6 3.9A2 2 0 0 0 7.93 3H4a2 2 0 0 0-2 2v13a2 2 0 0 0 2 2Z"/>
  </symbol>

  <!-- FOLDER COLLAPSE -->
  <symbol id="icon-folderCollapse" viewBox="0 0 24 24">
    <path d="M9 13h6"/>
    <path d="M20 20a2 2 0 0 0 2-2V8a2 2 0 0 0-2-2h-7.9a2 2 0 0 1-1.69-.9L9.6 3.9A2 2 0 0 0 7.93 3H4a2 2 0 0 0-2 2v13a2 2 0 0 0 2 2Z"/>
  </symbol>


  <!-- FILE: MARKDOWN -->
  <symbol id="icon-fileMD" viewBox="0 0 24 24">
    <path d="M2 6h4"/>
    <path d="M2 10h4"/>
    <path d="M2 14h4"/>
    <path d="M2 18h4"/>
    <rect x="4" y="2" width="16" height="20" rx="2"/>
    <path d="M9.5 8h5"/>
    <path d="M9.5 12H16"/>
    <path d="M9.5 16H14"/>
  </symbol>

  <!-- FILE: PDF -->
  <symbol id="icon-filePDF" viewBox="0 0 24 24">
    <path d="M6 22a2 2 0 0 1-2-2V4a2 2 0 0 1 2-2h8a2.4 2.4 0 0 1 1.704.706l3.588 3.588A2.4 2.4 0 0 1 20 8v12a2 2 0 0 1-2 2z"/>
    <path d="M14 2v5a1 1 0 0 0 1 1h5"/>
    <path d="M10 9H8"/>
    <path d="M16 13H8"/>
    <path d="M16 17H8"/>
  </symbol>

  <!-- FILE: EX -->
  <symbol id="icon-fileEX" viewBox="0 0 24 24">
    <path d="M13 7 8.7 2.7a2.41 2.41 0 0 0-3.4 0L2.7 5.3a2.41 2.41 0 0 0 0 3.4L7 13"/>
    <path d="m8 6 2-2"/>
    <path d="m18 16 2-2"/>
    <path d="m17 11 4.3 4.3c.94.94.94 2.46 0 3.4l-2.6 2.6c-.94.94-2.46.94-3.4 0L11 17"/>
    <path d="M21.174 6.812a1 1 0 0 0-3.986-3.987L3.842 16.174a2 2 0 0 0-.5.83l-1.321 4.352a.5.5 0 0 0 .623.622l4.353-1.32a2 2 0 0 0 .83-.497z"/>
    <path d="m15 5 4 4"/>
  </symbol>

  <!-- FILE: DIO -->
  <symbol id="icon-fileDIO" viewBox="0 0 24 24">
    <path d="M13 7 8.7 2.7a2.41 2.41 0 0 0-3.4 0L2.7 5.3a2.41 2.41 0 0 0 0 3.4L7 13"/>
    <path d="m8 6 2-2"/>
    <path d="m18 16 2-2"/>
    <path d="m17 11 4.3 4.3c.94.94.94 2.46 0 3.4l-2.6 2.6c-.94.94-2.46.94-3.4 0L11 17"/>
    <path d="M21.174 6.812a1 1 0 0 0-3.986-3.987L3.842 16.174a2 2 0 0 0-.5.83l-1.321 4.352a.5.5 0 0 0 .623.622l4.353-1.32a2 2 0 0 0 .83-.497z"/>
    <path d="m15 5 4 4"/>
  </symbol>

  <!-- FILE: IMAGE -->
  <symbol id="icon-fileIMG" viewBox="0 0 24 24">
    <rect x="3" y="3" width="18" height="18" rx="2"/>
    <circle cx="9" cy="9" r="2"/>
    <path d="m21 15-3.086-3.086a2 2 0 0 0-2.828 0L6 21"/>
  </symbol>

  <!-- FILE: UNKNOWN -->
  <symbol id="icon-file" viewBox="0 0 24 24">
    <path d="M6 22a2 2 0 0 1-2-2V4a2 2 0 0 1 2-2h8a2.4 2.4 0 0 1 1.704.706l3.588 3.588A2.4 2.4 0 0 1 20 8v12a2 2 0 0 1-2 2z"/>
    <path d="M12 17h.01"/>
    <path d="M9.1 9a3 3 0 0 1 5.82 1c0 2-3 3-3 3"/>
  </symbol>

  <!-- HOME -->
  <symbol id="icon-home" viewBox="0 0 24 24">
    <path d="m3 9 9-7 9 7v11a2 2 0 0 1-2 2H5a2 2 0 0 1-2-2z"/>
    <polyline points="9 22 9 12 15 12 15 22"/>
  </symbol>

  <!-- CLOSE -->
  <symbol id="icon-close" viewBox="0 0 24 24"><path d="M18 6 6 18"/><path d="m6 6 12 12"/>
    <path d="M18 6 6 18"/>
    <path d="m6 6 12 12"/>
  </symbol>

  <!-- FILTER OFF -->
  <symbol id="icon-filterOff" viewBox="0 0 24 24">
    <path d="M10.733 5.076a10.744 10.744 0 0 1 11.205 6.575 1 1 0 0 1 0 .696 10.747 10.747 0 0 1-1.444 2.49"/>
    <path d="M14.084 14.158a3 3 0 0 1-4.242-4.242"/>
    <path d="M17.479 17.499a10.75 10.75 0 0 1-15.417-5.151 1 1 0 0 1 0-.696 10.75 10.75 0 0 1 4.446-5.143"/>
    <path d="m2 2 20 20"/>
  </symbol>

  <!-- FILTER -->
  <symbol id="icon-filterOn" viewBox="0 0 24 24">
    <path d="M2.062 12.348a1 1 0 0 1 0-.696 10.75 10.75 0 0 1 19.876 0 1 1 0 0 1 0 .696 10.75 10.75 0 0 1-19.876 0"/>
    <circle cx="12" cy="12" r="3"/>
  </symbol>

  <!-- WINDOW -->
  <symbol id="icon-window" viewBox="0 0 24 24">
    <rect x="3" y="3" width="18" height="18" rx="2"/>
    <path d="M3 9h18"/>
  </symbol>

<!-- NEW PAGE -->
  <symbol id="icon-newPage" viewBox="0 0 24 24">
    <path d="M11.35 22H6a2 2 0 0 1-2-2V4a2 2 0 0 1 2-2h8a2.4 2.4 0 0 1 1.706.706l3.588 3.588A2.4 2.4 0 0 1 20 8v5.35"/>
    <path d="M14 2v5a1 1 0 0 0 1 1h5"/>
    <path d="M14 19h6"/>
    <path d="M17 16v6"/>
  </symbol>

</svg>
